<mxfile host="65bd71144e">
    <diagram id="FpXFpD6SoahhkL2PttKX" name="Page-1">
        <mxGraphModel dx="787" dy="355" grid="1" gridSize="10" guides="1" tooltips="1" connect="1" arrows="1" fold="1" page="1" pageScale="1" pageWidth="850" pageHeight="1100" math="0" shadow="0">
            <root>
                <mxCell id="0"/>
                <mxCell id="1" parent="0"/>
                <mxCell id="5" style="edgeStyle=elbowEdgeStyle;html=1;exitX=0.5;exitY=1;exitDx=0;exitDy=0;" edge="1" parent="1" source="2">
                    <mxGeometry relative="1" as="geometry">
                        <mxPoint x="300" y="260" as="targetPoint"/>
                    </mxGeometry>
                </mxCell>
                <mxCell id="2" value="#id: number&lt;br&gt;#producto: string&lt;br&gt;#precio: numbre&lt;br&gt;#stock: number&lt;br&gt;#cantidadvendida: number&lt;br&gt;" style="whiteSpace=wrap;html=1;align=left;" vertex="1" parent="1">
                    <mxGeometry x="110" y="110" width="150" height="100" as="geometry"/>
                </mxCell>
                <mxCell id="3" value="ProductosEnStock" style="whiteSpace=wrap;html=1;" vertex="1" parent="1">
                    <mxGeometry x="110" y="80" width="150" height="30" as="geometry"/>
                </mxCell>
                <mxCell id="6" value="+constroctor(id, producto, precio, stock,cantidadvendida)&lt;br&gt;+productosavender(productos)" style="whiteSpace=wrap;html=1;align=left;" vertex="1" parent="1">
                    <mxGeometry x="300" y="210" width="210" height="90" as="geometry"/>
                </mxCell>
            </root>
        </mxGraphModel>
    </diagram>
</mxfile>